<svg width="25" height="24" viewBox="0 0 25 24" fill="none" xmlns="http://www.w3.org/2000/svg">
<path d="M17.036 24V14.712H20.1467L20.612 11.1013H17.036V8.79733C17.036 7.752 17.3267 7.03867 18.8253 7.03867H20.7373V3.80933C19.8117 3.71113 18.8815 3.6635 17.9507 3.66667C15.1947 3.66667 13.308 5.34933 13.308 8.44V11.1013H10.1907V14.712H13.308V24H1.83333C1.47971 24 1.14057 23.8595 0.890524 23.6095C0.640476 23.3594 0.5 23.0203 0.5 22.6667V1.33333C0.5 0.979711 0.640476 0.640573 0.890524 0.390524C1.14057 0.140476 1.47971 0 1.83333 0H23.1667C23.5203 0 23.8594 0.140476 24.1095 0.390524C24.3595 0.640573 24.5 0.979711 24.5 1.33333V22.6667C24.5 23.0203 24.3595 23.3594 24.1095 23.6095C23.8594 23.8595 23.5203 24 23.1667 24H17.036Z" fill="#2A5594"/>
</svg>
