<svg width="25" height="24" viewBox="0 0 25 24" fill="none" xmlns="http://www.w3.org/2000/svg">
<path d="M12.5 6.36735C11.386 6.36735 10.297 6.6977 9.37067 7.31662C8.44438 7.93554 7.72243 8.81524 7.29611 9.84448C6.86978 10.8737 6.75824 12.0062 6.97558 13.0989C7.19291 14.1915 7.72937 15.1951 8.51711 15.9829C9.30485 16.7706 10.3085 17.3071 11.4011 17.5244C12.4938 17.7418 13.6263 17.6302 14.6555 17.2039C15.6848 16.7776 16.5645 16.0556 17.1834 15.1293C17.8023 14.203 18.1327 13.114 18.1327 12C18.1327 10.5061 17.5392 9.07344 16.4829 8.01711C15.4266 6.96079 13.9939 6.36735 12.5 6.36735ZM12.5 16.1633C11.6766 16.1633 10.8717 15.9191 10.187 15.4616C9.50237 15.0042 8.96875 14.3539 8.65364 13.5932C8.33854 12.8325 8.25609 11.9954 8.41673 11.1878C8.57737 10.3802 8.97388 9.63837 9.55613 9.05613C10.1384 8.47388 10.8802 8.07737 11.6878 7.91673C12.4954 7.75609 13.3325 7.83854 14.0932 8.15364C14.8539 8.46875 15.5042 9.00237 15.9616 9.68701C16.4191 10.3717 16.6633 11.1766 16.6633 12C16.66 13.1032 16.2204 14.1602 15.4403 14.9403C14.6602 15.7204 13.6032 16.16 12.5 16.1633ZM17.8878 0H7.11225C5.35857 0 3.67672 0.696645 2.43668 1.93668C1.19665 3.17672 0.5 4.85857 0.5 6.61225V17.3878C0.5 19.1414 1.19665 20.8233 2.43668 22.0633C3.67672 23.3034 5.35857 24 7.11225 24H17.8878C19.6414 24 21.3233 23.3034 22.5633 22.0633C23.8034 20.8233 24.5 19.1414 24.5 17.3878V6.61225C24.5 4.85857 23.8034 3.17672 22.5633 1.93668C21.3233 0.696645 19.6414 0 17.8878 0ZM23.0306 17.3878C23.0306 18.7517 22.4888 20.0598 21.5243 21.0243C20.5598 21.9888 19.2517 22.5306 17.8878 22.5306H7.11225C5.74827 22.5306 4.44017 21.9888 3.4757 21.0243C2.51122 20.0598 1.96939 18.7517 1.96939 17.3878V6.61225C1.96939 5.24827 2.51122 3.94017 3.4757 2.9757C4.44017 2.01122 5.74827 1.46939 7.11225 1.46939H17.8878C19.2517 1.46939 20.5598 2.01122 21.5243 2.9757C22.4888 3.94017 23.0306 5.24827 23.0306 6.61225V17.3878ZM20.0918 5.63265C20.0918 5.87483 20.02 6.11158 19.8855 6.31294C19.7509 6.51431 19.5597 6.67126 19.3359 6.76393C19.1122 6.85661 18.866 6.88086 18.6285 6.83361C18.3909 6.78637 18.1727 6.66975 18.0015 6.4985C17.8303 6.32725 17.7136 6.10907 17.6664 5.87154C17.6191 5.63401 17.6434 5.38781 17.7361 5.16406C17.8287 4.94031 17.9857 4.74908 18.1871 4.61453C18.3884 4.47998 18.6252 4.40816 18.8673 4.40816C19.1921 4.40816 19.5036 4.53717 19.7332 4.76681C19.9628 4.99644 20.0918 5.3079 20.0918 5.63265Z" fill="#2A5594"/>
</svg>
