<svg width="24" height="18" viewBox="0 0 24 18" fill="none" xmlns="http://www.w3.org/2000/svg">
<path d="M1.33333 18C0.955556 18 0.639111 17.856 0.384 17.568C0.128 17.281 0 16.925 0 16.5C0 16.075 0.128 15.719 0.384 15.432C0.639111 15.144 0.955556 15 1.33333 15H22.6667C23.0444 15 23.3609 15.144 23.616 15.432C23.872 15.719 24 16.075 24 16.5C24 16.925 23.872 17.281 23.616 17.568C23.3609 17.856 23.0444 18 22.6667 18H1.33333ZM1.33333 10.5C0.955556 10.5 0.639111 10.356 0.384 10.068C0.128 9.781 0 9.425 0 9C0 8.575 0.128 8.2185 0.384 7.9305C0.639111 7.6435 0.955556 7.5 1.33333 7.5H22.6667C23.0444 7.5 23.3609 7.6435 23.616 7.9305C23.872 8.2185 24 8.575 24 9C24 9.425 23.872 9.781 23.616 10.068C23.3609 10.356 23.0444 10.5 22.6667 10.5H1.33333ZM1.33333 3C0.955556 3 0.639111 2.8565 0.384 2.5695C0.128 2.2815 0 1.925 0 1.5C0 1.075 0.128 0.7185 0.384 0.4305C0.639111 0.1435 0.955556 0 1.33333 0H22.6667C23.0444 0 23.3609 0.1435 23.616 0.4305C23.872 0.7185 24 1.075 24 1.5C24 1.925 23.872 2.2815 23.616 2.5695C23.3609 2.8565 23.0444 3 22.6667 3H1.33333Z" fill="#2A5594"/>
</svg>
