<svg width="35" height="24" viewBox="0 0 35 24" fill="none" xmlns="http://www.w3.org/2000/svg">
<g clip-path="url(#clip0_8_21)">
<path d="M33.7429 3.74333C33.5462 3.01981 33.1626 2.36019 32.6302 1.83017C32.0979 1.30015 31.4353 0.918215 30.7086 0.7224C28.048 0 17.3398 0 17.3398 0C17.3398 0 6.63117 0.0218666 3.97054 0.744267C3.24378 0.940093 2.58122 1.32205 2.04886 1.85209C1.51649 2.38214 1.13289 3.04178 0.936256 3.76533C0.131479 8.47173 -0.180708 15.6432 0.958354 20.1613C1.15501 20.8849 1.53862 21.5445 2.07099 22.0745C2.60335 22.6045 3.26589 22.9865 3.99264 23.1823C6.65326 23.9047 17.3617 23.9047 17.3617 23.9047C17.3617 23.9047 28.0699 23.9047 30.7304 23.1823C31.4572 22.9865 32.1198 22.6045 32.6521 22.0745C33.1845 21.5445 33.5682 20.8849 33.7648 20.1613C34.6137 15.4483 34.8752 8.2812 33.7429 3.74333Z" fill="#2A5594"/>
<path d="M13.9316 17.0746L22.8149 11.9522L13.9316 6.82983V17.0746Z" fill="white"/>
</g>
<defs>
<clipPath id="clip0_8_21">
<rect width="34.2857" height="24" fill="white" transform="translate(0.214355)"/>
</clipPath>
</defs>
</svg>
